<?xml version="1.0" encoding="UTF-8" standalone="no"?><!DOCTYPE svg PUBLIC "-//W3C//DTD SVG 1.1//EN" "http://www.w3.org/Graphics/SVG/1.1/DTD/svg11.dtd"><svg width="100%" height="100%" viewBox="0 0 112 112" version="1.1" xmlns="http://www.w3.org/2000/svg" xmlns:xlink="http://www.w3.org/1999/xlink" xml:space="preserve" xmlns:serif="http://www.serif.com/" style="fill-rule:evenodd;clip-rule:evenodd;stroke-linejoin:round;stroke-miterlimit:2;"><g transform="matrix(1,0,0,1,-944.144,-312.769)"><g transform="matrix(1.39568,0,0,1.39568,668.928,-1353.32)"><g id="fan"><g transform="matrix(1.28,1.42109e-16,-1.43255e-16,1.29032,-611.128,747.292)"><ellipse cx="662.75" cy="377" rx="31.25" ry="31" style="fill:url(#_Radial1);"/></g><g transform="matrix(1.28,1.42109e-16,-1.43255e-16,1.29032,-611.128,747.292)"><path d="M631.537,375.482c0.055,-1.123 0.17,-2.231 0.342,-3.32c1.415,-0.126 4.086,-0.155 6.775,0.935l0.314,-1.518c-2.214,-1.604 -5.032,-2.098 -6.502,-2.251c0.261,-1.015 0.572,-2.01 0.932,-2.983c1.401,0.144 4.057,0.624 6.508,2.228l0.605,-1.429c-1.876,-2.019 -4.578,-3.048 -5.979,-3.473c0.454,-0.942 0.954,-1.859 1.498,-2.746c1.336,0.403 3.878,1.384 5.99,3.452l0.874,-1.285c-1.46,-2.366 -3.944,-3.903 -5.224,-4.579c0.606,-0.808 1.25,-1.584 1.93,-2.328c1.224,0.637 3.563,2.087 5.257,4.543l1.105,-1.096c-0.989,-2.629 -3.17,-4.623 -4.286,-5.515c0.801,-0.725 1.639,-1.411 2.513,-2.052c1.059,0.848 3.105,2.742 4.293,5.522l1.301,-0.858c-0.452,-2.811 -2.237,-5.222 -3.141,-6.293c0.88,-0.527 1.788,-1.012 2.722,-1.452c0.865,1.012 2.545,3.286 3.181,6.285l1.444,-0.593c0.103,-2.885 -1.218,-5.628 -1.89,-6.826c0.989,-0.356 2.001,-0.664 3.034,-0.921c0.642,1.137 1.877,3.72 1.911,6.827l1.532,-0.302c0.677,-2.842 -0.105,-5.824 -0.525,-7.105c1.037,-0.156 2.09,-0.26 3.158,-0.312c0.404,1.218 1.129,4.018 0.545,7.107l1.562,-0c1.235,-2.684 1.038,-5.796 0.877,-7.111c1.215,0.054 2.411,0.178 3.586,0.367c0.14,1.344 0.226,4.117 -0.924,6.91l1.53,0.312c1.68,-2.283 2.152,-5.213 2.285,-6.616c1.023,0.265 2.026,0.581 3.005,0.944c-0.126,1.345 -0.585,4.083 -2.26,6.602l1.44,0.601c2.094,-1.915 3.131,-4.695 3.536,-6.047c0.949,0.458 1.87,0.962 2.762,1.509c-0.388,1.297 -1.374,3.889 -3.508,6.034l1.296,0.867c2.424,-1.472 3.984,-3.994 4.649,-5.244c0.81,0.608 1.589,1.255 2.334,1.937c-0.631,1.202 -2.098,3.556 -4.601,5.255l1.105,1.096c2.661,-0.986 4.678,-3.164 5.571,-4.266c0.726,0.801 1.411,1.641 2.05,2.514c-0.857,1.054 -2.765,3.076 -5.559,4.251l0.865,1.291c2.809,-0.444 5.223,-2.189 6.315,-3.093c0.525,0.879 1.006,1.786 1.442,2.719c-1.044,0.869 -3.31,2.493 -6.286,3.114l0.598,1.432c2.847,0.1 5.558,-1.154 6.803,-1.832c0.351,0.986 0.653,1.995 0.903,3.024c-1.193,0.65 -3.737,1.806 -6.779,1.839l0.305,1.52c2.771,0.649 5.674,-0.056 7.03,-0.479c0.148,1.031 0.245,2.079 0.288,3.141c-1.3,0.407 -4.019,1.045 -7.005,0.49l-0,1.55c2.588,1.172 5.572,1.044 6.987,0.891c-0.061,1.124 -0.181,2.233 -0.359,3.323c-1.356,0.139 -4.151,0.223 -6.966,-0.917l-0.314,1.518c2.301,1.667 5.255,2.135 6.669,2.267c-0.268,1.014 -0.586,2.009 -0.952,2.981c-1.356,-0.125 -4.116,-0.58 -6.655,-2.242l-0.605,1.429c1.929,2.076 4.732,3.105 6.095,3.507c-0.461,0.941 -0.969,1.855 -1.521,2.74c-1.308,-0.385 -3.921,-1.364 -6.083,-3.48l-0.874,1.285c1.484,2.405 4.026,3.953 5.287,4.612c-0.614,0.803 -1.266,1.576 -1.953,2.316c-1.212,-0.627 -3.584,-2.081 -5.297,-4.565l-1.105,1.096c0.993,2.641 3.19,4.641 4.3,5.527c-0.808,0.72 -1.654,1.399 -2.535,2.034c-1.062,-0.851 -3.1,-2.743 -4.285,-5.515l-1.301,0.858c0.448,2.787 2.207,5.181 3.118,6.265c-0.886,0.52 -1.801,0.998 -2.741,1.43c-0.876,-1.035 -2.513,-3.284 -3.139,-6.235l-1.444,0.593c-0.101,2.824 1.164,5.513 1.847,6.748c-0.994,0.349 -2.011,0.648 -3.048,0.896c-0.655,-1.184 -1.82,-3.707 -1.854,-6.725l-1.532,0.303c-0.655,2.748 0.056,5.629 0.483,6.974c-1.04,0.147 -2.097,0.243 -3.167,0.286c-0.41,-1.291 -1.054,-3.988 -0.494,-6.95l-1.562,-0c-1.182,2.568 -1.052,5.528 -0.898,6.931c-1.215,-0.064 -2.411,-0.197 -3.585,-0.395c-0.126,-1.408 -0.149,-4.046 0.945,-6.702l-1.531,-0.312c-1.597,2.17 -2.103,4.924 -2.263,6.396c-1.022,-0.272 -2.024,-0.595 -3.002,-0.964c0.156,-1.413 0.654,-3.985 2.235,-6.362l-1.44,-0.601c-1.978,1.808 -3.013,4.389 -3.463,5.809c-0.947,-0.463 -1.867,-0.972 -2.757,-1.524c0.435,-1.361 1.427,-3.768 3.43,-5.781l-1.296,-0.867c-2.28,1.385 -3.797,3.699 -4.521,5.009c-0.809,-0.612 -1.586,-1.262 -2.33,-1.947c0.692,-1.256 2.126,-3.42 4.469,-5.01l-1.105,-1.096c-2.499,0.925 -4.43,2.903 -5.395,4.054c-0.725,-0.804 -1.408,-1.644 -2.046,-2.519c0.928,-1.096 2.766,-2.935 5.379,-4.035l-0.865,-1.291c-2.639,0.418 -4.929,1.984 -6.103,2.921c-0.524,-0.88 -1.005,-1.787 -1.442,-2.72c1.121,-0.896 3.286,-2.359 6.074,-2.94l-0.598,-1.432c-2.682,-0.095 -5.243,1.013 -6.572,1.708c-0.352,-0.985 -0.656,-1.993 -0.908,-3.021c1.271,-0.662 3.692,-1.687 6.553,-1.718l-0.305,-1.52c-2.623,-0.615 -5.366,-0.016 -6.801,0.409c-0.151,-1.03 -0.252,-2.077 -0.298,-3.138c1.371,-0.405 3.959,-0.949 6.786,-0.423l0,-1.55c-2.468,-1.118 -5.295,-1.053 -6.779,-0.912Z" style="fill:rgb(13,13,13);"/></g><g transform="matrix(0.96,1.06581e-16,-1.07441e-16,0.967742,-399.048,868.905)"><ellipse cx="662.75" cy="377" rx="31.25" ry="31" style="fill:url(#_Radial2);"/></g></g></g></g><defs><radialGradient id="_Radial1" cx="0" cy="0" r="1" gradientUnits="userSpaceOnUse" gradientTransform="matrix(31.25,0,0,31,662.752,377.004)"><stop offset="0" style="stop-color:black;stop-opacity:1"/><stop offset="0.77" style="stop-color:black;stop-opacity:1"/><stop offset="0.81" style="stop-color:rgb(128,128,128);stop-opacity:1"/><stop offset="0.9" style="stop-color:rgb(31,31,31);stop-opacity:1"/><stop offset="1" style="stop-color:black;stop-opacity:1"/></radialGradient><radialGradient id="_Radial2" cx="0" cy="0" r="1" gradientUnits="userSpaceOnUse" gradientTransform="matrix(31.25,0,0,31,662.75,377)"><stop offset="0" style="stop-color:rgb(59,59,59);stop-opacity:1"/><stop offset="0.58" style="stop-color:rgb(63,63,63);stop-opacity:1"/><stop offset="0.88" style="stop-color:rgb(84,84,84);stop-opacity:1"/><stop offset="0.94" style="stop-color:rgb(109,109,109);stop-opacity:1"/><stop offset="1" style="stop-color:rgb(100,100,100);stop-opacity:1"/></radialGradient></defs></svg>